<?xml version="1.0" standalone="no"?><!DOCTYPE svg PUBLIC "-//W3C//DTD SVG 1.1//EN" "http://www.w3.org/Graphics/SVG/1.1/DTD/svg11.dtd"><svg t="1504942449483" class="icon" style="" viewBox="0 0 1024 1024" version="1.1" xmlns="http://www.w3.org/2000/svg" p-id="1190" xmlns:xlink="http://www.w3.org/1999/xlink" width="200" height="200"><defs><style type="text/css"></style></defs><path d="M512 0S210.823529 180.705882 90.352941 180.705882v361.411765c0 120.470588 60.235294 361.411765 421.647059 481.882353 361.411765-120.470588 421.647059-361.411765 421.647059-481.882353V180.705882c-120.470588 0-421.647059-180.705882-421.647059-180.705882z m-32.527059 696.922353h-40.357647v74.089412H367.435294v-74.089412H278.889412v-60.235294H367.435294v-60.235294h-60.235294a34.334118 34.334118 0 0 1-14.456471 0 31.322353 31.322353 0 0 1-10.842353-7.830589 29.515294 29.515294 0 0 1-6.625882-10.842352 24.696471 24.696471 0 0 1 0-12.047059l23.491765-147.576471h-23.491765v-60.235294h33.129412l6.023529-33.731765 69.270589 7.228236-4.216471 26.503529h99.990588v60.235294H369.242353l-19.877647 120.470588h25.901176V421.647059h71.077647v91.557647h28.310589v60.235294h-35.538824v60.235294h40.357647z m269.251765-189.741177H602.352941l-7.830588 37.948236h120.470588a31.924706 31.924706 0 0 1 13.854118 3.011764 33.731765 33.731765 0 0 1 10.842353 8.432942 23.491765 23.491765 0 0 1 5.421176 12.649411 28.310588 28.310588 0 0 1 0 15.058824L658.371765 722.823529l35.538823 46.381177H608.376471l-103.002353-134.927059h85.534117l25.901177 34.334118 39.755294-66.258824H551.152941a37.345882 37.345882 0 0 1-26.503529-10.24 25.901176 25.901176 0 0 1-7.830588-25.298823l12.649411-60.235294h-52.404706v-60.235295h65.656471l11.444706-51.802353h-60.235294v-60.235294h72.884706L572.235294 301.176471l72.282353 6.023529-6.023529 25.901176h91.557647v60.235295H625.844706l-10.842353 51.802353h133.722353z" fill="#CCCCCC" p-id="1191"></path></svg>